<svg xmlns="http://www.w3.org/2000/svg" width="50" height="49" viewBox="0 0 50 49">
  <path fill="#AAA" d="M24.6089447,16.3704545 L2.24608945,16.3704545 L2.24608945,12.1386364 L24.6089447,0 L47.0830579,12.1386364 L47.0830579,16.3704545 L24.6089447,16.3704545 Z M49.0857017,47.775 L48.4181538,44.6568182 C48.3068958,44.2113636 47.9731218,43.8772727 47.4168319,43.8772727 L1.8010575,43.8772727 C1.35602556,43.8772727 0.910993611,44.2113636 0.799735625,44.6568182 L0.132187707,47.775 C0.0209297202,48.4431818 0.465961666,49 1.13350958,49 L48.0843798,49 C48.7519277,49 49.1969597,48.4431818 49.0857017,47.775 Z M11.3692443,42.875 L11.3692443,17.2613636 L7.25269883,17.2613636 L7.25269883,42.875 L11.3692443,42.875 Z M21.4937211,42.875 L21.4937211,17.2613636 L17.3771756,17.2613636 L17.3771756,42.875 L21.4937211,42.875 Z M31.8407138,42.875 L31.8407138,17.2613636 L27.7241683,17.2613636 L27.7241683,42.875 L31.8407138,42.875 Z M41.9651906,42.875 L41.9651906,17.2613636 L37.9599031,17.2613636 L37.9599031,42.875 L41.9651906,42.875 Z"/>
</svg>
