<?xml version="1.0" encoding="UTF-8"?>
<svg width="174px" height="38px" viewBox="0 0 174 38" version="1.1" xmlns="http://www.w3.org/2000/svg" xmlns:xlink="http://www.w3.org/1999/xlink">
    <title>en-unknown.ae4522e7</title>
    <g id="Page-1" stroke="none" stroke-width="1" fill="none" fill-rule="evenodd">
        <g id="en-unknown.ae4522e7" fill="#FFFFFF" fill-rule="nonzero">
            <path d="M19.105,12.695 L1.66203,12.695 L1.66203,9.414 L19.105,0 L36.635,9.414 L36.635,12.695 L19.105,12.695 L19.105,12.695 Z M38.197,37.05 L37.677,34.632 C37.59,34.286 37.329,34.027 36.895,34.027 L1.31503,34.027 C1.13733,34.0313 0.96568,34.0924 0.82516,34.2012 C0.68464,34.3101 0.58263,34.461 0.53403,34.632 L0.01403,37.05 C-0.07297,37.568 0.27403,38 0.79403,38 L37.416,38 C37.936,38 38.284,37.568 38.197,37.05 L38.197,37.05 Z M8.778,33.25 L8.778,13.386 L5.56803,13.386 L5.56803,33.25 L8.778,33.25 Z M16.675,33.25 L16.675,13.386 L13.465,13.386 L13.465,33.25 L16.675,33.25 Z M24.745,33.25 L24.745,13.386 L21.535,13.386 L21.535,33.25 L24.745,33.25 Z M32.643,33.25 L32.643,13.386 L29.519,13.386 L29.519,33.25 L32.643,33.25 Z" id="Shape"></path>
            <polygon id="Path" points="54.3155 23.4666 59.5996 13.1311 62.631 13.1311 55.6504 26.0398 55.6504 33.7172 52.9806 33.7172 52.9806 26.0398 46 13.1311 49.0592 13.1311"></polygon>
            <path d="M63.2428,25.9267 C63.2428,24.428 63.5302,23.0801 64.1049,21.883 C64.689,20.6859 65.4955,19.7622 66.5245,19.1118 C67.5628,18.4614 68.7447,18.1362 70.0704,18.1362 C72.1191,18.1362 73.7739,18.8573 75.0347,20.2995 C76.3047,21.7416 76.9397,23.6598 76.9397,26.054 L76.9397,26.2378 C76.9397,27.7271 76.657,29.0656 76.0915,30.2532 C75.5353,31.4314 74.7334,32.3505 73.6858,33.0103 C72.6475,33.6701 71.4517,34 70.0982,34 C68.0587,34 66.404,33.2789 65.1339,31.8368 C63.8732,30.3946 63.2428,28.4859 63.2428,26.1105 L63.2428,25.9267 Z M65.8292,26.2378 C65.8292,27.9344 66.2139,29.2965 66.9834,30.3239 C67.7621,31.3513 68.8004,31.865 70.0982,31.865 C71.4053,31.865 72.4436,31.3466 73.213,30.3098 C73.9825,29.2635 74.3672,27.8025 74.3672,25.9267 C74.3672,24.2489 73.9732,22.8916 73.1852,21.8548 C72.4065,20.8085 71.3682,20.2853 70.0704,20.2853 C68.8004,20.2853 67.776,20.7991 66.9973,21.8265 C66.2186,22.8539 65.8292,24.3243 65.8292,26.2378 Z" id="Shape"></path>
            <path d="M89.4546,32.2044 C88.4534,33.4015 86.9841,34 85.0466,34 C83.4428,34 82.2192,33.5287 81.3756,32.5861 C80.5412,31.6341 80.1194,30.2296 80.1102,28.3728 L80.1102,18.419 L82.6827,18.419 L82.6827,28.3021 C82.6827,30.6208 83.6097,31.7802 85.4638,31.7802 C87.4291,31.7802 88.7362,31.0356 89.3851,29.5463 L89.3851,18.419 L91.9576,18.419 L91.9576,33.7172 L89.5103,33.7172 L89.4546,32.2044 Z" id="Path"></path>
            <path d="M103.152,20.7661 C102.762,20.7001 102.34,20.6671 101.886,20.6671 C100.199,20.6671 99.054,21.3976 98.451,22.8586 L98.451,33.7172 L95.879,33.7172 L95.879,18.419 L98.382,18.419 L98.424,20.1864 C99.267,18.8196 100.463,18.1362 102.011,18.1362 C102.512,18.1362 102.892,18.2022 103.152,18.3342 L103.152,20.7661 Z" id="Path"></path>
            <path d="M112.997,33.7172 L112.997,13.1311 L119.616,13.1311 C121.813,13.1311 123.463,13.593 124.566,14.5167 C125.678,15.4404 126.235,16.8072 126.235,18.617 C126.235,19.5784 125.966,20.4314 125.428,21.1761 C124.89,21.9113 124.158,22.4816 123.231,22.8869 C124.325,23.1979 125.187,23.7918 125.817,24.6684 C126.457,25.5356 126.777,26.5724 126.777,27.7789 C126.777,29.6264 126.188,31.078 125.011,32.1337 C123.834,33.1894 122.17,33.7172 120.019,33.7172 L112.997,33.7172 Z M115.666,24.0887 L115.666,31.4974 L120.075,31.4974 C121.317,31.4974 122.295,31.1722 123.009,30.5219 C123.732,29.862 124.093,28.9572 124.093,27.8072 C124.093,25.3282 122.768,24.0887 120.116,24.0887 L115.666,24.0887 Z M115.666,21.9113 L119.699,21.9113 C120.867,21.9113 121.799,21.6144 122.494,21.0206 C123.199,20.4267 123.551,19.6208 123.551,18.6028 C123.551,17.4717 123.226,16.6517 122.578,16.1427 C121.929,15.6243 120.941,15.365 119.616,15.365 L115.666,15.365 L115.666,21.9113 Z" id="Shape"></path>
            <path d="M139.626,33.7172 C139.477,33.4156 139.357,32.8783 139.264,32.1054 C138.068,33.3685 136.641,34 134.981,34 C133.498,34 132.279,33.5758 131.324,32.7275 C130.378,31.8698 129.906,30.7858 129.906,29.4756 C129.906,27.8826 130.499,26.6478 131.686,25.7712 C132.881,24.8852 134.559,24.4422 136.719,24.4422 L139.222,24.4422 L139.222,23.2404 C139.222,22.326 138.954,21.6003 138.416,21.063 C137.878,20.5163 137.086,20.2429 136.038,20.2429 C135.12,20.2429 134.351,20.4786 133.73,20.9499 C133.109,21.4212 132.798,21.9914 132.798,22.6607 L130.212,22.6607 C130.212,21.8972 130.476,21.162 131.004,20.455 C131.542,19.7386 132.265,19.1731 133.173,18.7584 C134.091,18.3436 135.097,18.1362 136.191,18.1362 C137.925,18.1362 139.283,18.5793 140.265,19.4653 C141.248,20.3419 141.758,21.5531 141.795,23.099 L141.795,30.1401 C141.795,31.5446 141.971,32.6615 142.323,33.491 L142.323,33.7172 L139.626,33.7172 Z M135.357,31.7236 C136.163,31.7236 136.928,31.5116 137.651,31.0874 C138.374,30.6632 138.898,30.1118 139.222,29.4332 L139.222,26.2943 L137.206,26.2943 C134.054,26.2943 132.478,27.2322 132.478,29.108 C132.478,29.928 132.747,30.569 133.285,31.0308 C133.822,31.4927 134.513,31.7236 135.357,31.7236 Z" id="Shape"></path>
            <path d="M148.261,18.419 L148.344,20.3419 C149.494,18.8715 150.996,18.1362 152.85,18.1362 C156.029,18.1362 157.633,19.9602 157.661,23.608 L157.661,33.7172 L155.089,33.7172 L155.089,23.5938 C155.079,22.491 154.829,21.6757 154.338,21.1478 C153.856,20.62 153.1,20.356 152.071,20.356 C151.237,20.356 150.504,20.5823 149.874,21.0347 C149.244,21.4871 148.752,22.081 148.4,22.8162 L148.4,33.7172 L145.827,33.7172 L145.827,18.419 L148.261,18.419 Z" id="Path"></path>
            <polygon id="Path" points="165.74 26.6337 164.127 28.3445 164.127 33.7172 161.555 33.7172 161.555 12 164.127 12 164.127 25.135 165.504 23.4524 170.19 18.419 173.319 18.419 167.464 24.8098 174 33.7172 170.983 33.7172"></polygon>
        </g>
    </g>
</svg>