<svg width="178" height="50" viewBox="0 0 178 50" fill="none" xmlns="http://www.w3.org/2000/svg">
<path d="M22.105 18.695H4.66203V15.414L22.105 6L39.635 15.414V18.695H22.105V18.695ZM41.197 43.05L40.677 40.632C40.59 40.286 40.329 40.027 39.895 40.027H4.31503C4.13733 40.0313 3.96568 40.0924 3.82516 40.2012C3.68464 40.3101 3.58263 40.461 3.53403 40.632L3.01403 43.05C2.92703 43.568 3.27403 44 3.79403 44H40.416C40.936 44 41.284 43.568 41.197 43.05V43.05ZM11.778 39.25V19.386H8.56803V39.25H11.778ZM19.675 39.25V19.386H16.465V39.25H19.675ZM27.745 39.25V19.386H24.535V39.25H27.745ZM35.643 39.25V19.386H32.519V39.25H35.643Z" fill="#AAAAAA"/>
<path d="M57.3155 29.4666L62.5996 19.1311H65.631L58.6504 32.0398V39.7172H55.9806V32.0398L49 19.1311H52.0592L57.3155 29.4666Z" fill="#9F9F9F"/>
<path d="M66.2428 31.9267C66.2428 30.428 66.5302 29.0801 67.1049 27.883C67.689 26.6859 68.4955 25.7622 69.5245 25.1118C70.5628 24.4614 71.7447 24.1362 73.0704 24.1362C75.1191 24.1362 76.7739 24.8573 78.0347 26.2995C79.3047 27.7416 79.9397 29.6598 79.9397 32.054V32.2378C79.9397 33.7271 79.657 35.0656 79.0915 36.2532C78.5353 37.4314 77.7334 38.3505 76.6858 39.0103C75.6475 39.6701 74.4517 40 73.0982 40C71.0587 40 69.404 39.2789 68.1339 37.8368C66.8732 36.3946 66.2428 34.4859 66.2428 32.1105V31.9267ZM68.8292 32.2378C68.8292 33.9344 69.2139 35.2965 69.9834 36.3239C70.7621 37.3513 71.8004 37.865 73.0982 37.865C74.4053 37.865 75.4436 37.3466 76.213 36.3098C76.9825 35.2635 77.3672 33.8025 77.3672 31.9267C77.3672 30.2489 76.9732 28.8916 76.1852 27.8548C75.4065 26.8085 74.3682 26.2853 73.0704 26.2853C71.8004 26.2853 70.776 26.7991 69.9973 27.8265C69.2186 28.8539 68.8292 30.3243 68.8292 32.2378Z" fill="#9F9F9F"/>
<path d="M92.4546 38.2044C91.4534 39.4015 89.9841 40 88.0466 40C86.4428 40 85.2192 39.5287 84.3756 38.5861C83.5412 37.6341 83.1194 36.2296 83.1102 34.3728V24.419H85.6827V34.3021C85.6827 36.6208 86.6097 37.7802 88.4638 37.7802C90.4291 37.7802 91.7362 37.0356 92.3851 35.5463V24.419H94.9576V39.7172H92.5103L92.4546 38.2044Z" fill="#9F9F9F"/>
<path d="M106.152 26.7661C105.762 26.7001 105.34 26.6671 104.886 26.6671C103.199 26.6671 102.054 27.3976 101.451 28.8586V39.7172H98.879V24.419H101.382L101.424 26.1864C102.267 24.8196 103.463 24.1362 105.011 24.1362C105.512 24.1362 105.892 24.2022 106.152 24.3342V26.7661Z" fill="#9F9F9F"/>
<path d="M115.997 39.7172V19.1311H122.616C124.813 19.1311 126.463 19.593 127.566 20.5167C128.678 21.4404 129.235 22.8072 129.235 24.617C129.235 25.5784 128.966 26.4314 128.428 27.1761C127.89 27.9113 127.158 28.4816 126.231 28.8869C127.325 29.1979 128.187 29.7918 128.817 30.6684C129.457 31.5356 129.777 32.5724 129.777 33.7789C129.777 35.6264 129.188 37.078 128.011 38.1337C126.834 39.1894 125.17 39.7172 123.019 39.7172H115.997ZM118.666 30.0887V37.4974H123.075C124.317 37.4974 125.295 37.1722 126.009 36.5219C126.732 35.862 127.093 34.9572 127.093 33.8072C127.093 31.3282 125.768 30.0887 123.116 30.0887H118.666ZM118.666 27.9113H122.699C123.867 27.9113 124.799 27.6144 125.494 27.0206C126.199 26.4267 126.551 25.6208 126.551 24.6028C126.551 23.4717 126.226 22.6517 125.578 22.1427C124.929 21.6243 123.941 21.365 122.616 21.365H118.666V27.9113Z" fill="#9F9F9F"/>
<path d="M142.626 39.7172C142.477 39.4156 142.357 38.8783 142.264 38.1054C141.068 39.3685 139.641 40 137.981 40C136.498 40 135.279 39.5758 134.324 38.7275C133.378 37.8698 132.906 36.7858 132.906 35.4756C132.906 33.8826 133.499 32.6478 134.686 31.7712C135.881 30.8852 137.559 30.4422 139.719 30.4422H142.222V29.2404C142.222 28.326 141.954 27.6003 141.416 27.063C140.878 26.5163 140.086 26.2429 139.038 26.2429C138.12 26.2429 137.351 26.4786 136.73 26.9499C136.109 27.4212 135.798 27.9914 135.798 28.6607H133.212C133.212 27.8972 133.476 27.162 134.004 26.455C134.542 25.7386 135.265 25.1731 136.173 24.7584C137.091 24.3436 138.097 24.1362 139.191 24.1362C140.925 24.1362 142.283 24.5793 143.265 25.4653C144.248 26.3419 144.758 27.5531 144.795 29.099V36.1401C144.795 37.5446 144.971 38.6615 145.323 39.491V39.7172H142.626ZM138.357 37.7236C139.163 37.7236 139.928 37.5116 140.651 37.0874C141.374 36.6632 141.898 36.1118 142.222 35.4332V32.2943H140.206C137.054 32.2943 135.478 33.2322 135.478 35.108C135.478 35.928 135.747 36.569 136.285 37.0308C136.822 37.4927 137.513 37.7236 138.357 37.7236Z" fill="#9F9F9F"/>
<path d="M151.261 24.419L151.344 26.3419C152.494 24.8715 153.996 24.1362 155.85 24.1362C159.029 24.1362 160.633 25.9602 160.661 29.608V39.7172H158.089V29.5938C158.079 28.491 157.829 27.6757 157.338 27.1478C156.856 26.62 156.1 26.356 155.071 26.356C154.237 26.356 153.504 26.5823 152.874 27.0347C152.244 27.4871 151.752 28.081 151.4 28.8162V39.7172H148.827V24.419H151.261Z" fill="#9F9F9F"/>
<path d="M168.74 32.6337L167.127 34.3445V39.7172H164.555V18H167.127V31.135L168.504 29.4524L173.19 24.419H176.319L170.464 30.8098L177 39.7172H173.983L168.74 32.6337Z" fill="#9F9F9F"/>
</svg>
