<svg width="22" height="19" viewBox="0 0 22 19" fill="none" xmlns="http://www.w3.org/2000/svg">
<path d="M1.46667 7.5293H3.66667V13.529H2.2C2.00551 13.529 1.81898 13.608 1.68146 13.7487C1.54393 13.8893 1.46667 14.0801 1.46667 14.279C1.46667 14.4779 1.54393 14.6686 1.68146 14.8093C1.81898 14.9499 2.00551 15.0289 2.2 15.0289H19.8C19.9945 15.0289 20.181 14.9499 20.3185 14.8093C20.4561 14.6686 20.5333 14.4779 20.5333 14.279C20.5333 14.0801 20.4561 13.8893 20.3185 13.7487C20.181 13.608 19.9945 13.529 19.8 13.529H18.3333V7.5293H20.5333C20.6927 7.52901 20.8476 7.47564 20.9747 7.37726C21.1017 7.27889 21.194 7.14086 21.2375 6.98408C21.281 6.82729 21.2734 6.66028 21.2158 6.50832C21.1582 6.35636 21.0538 6.22772 20.9183 6.14186L11.385 0.142143C11.2696 0.0680903 11.1362 0.0288086 11 0.0288086C10.8638 0.0288086 10.7304 0.0680903 10.615 0.142143L1.08167 6.14186C0.946209 6.22772 0.841784 6.35636 0.784196 6.50832C0.726607 6.66028 0.71899 6.82729 0.762496 6.98408C0.806002 7.14086 0.898264 7.27889 1.02532 7.37726C1.15237 7.47564 1.30731 7.52901 1.46667 7.5293ZM5.13333 7.5293H8.06667V13.529H5.13333V7.5293ZM12.4667 7.5293V13.529H9.53333V7.5293H12.4667ZM16.8667 13.529H13.9333V7.5293H16.8667V13.529ZM11 1.66082L17.9392 6.02937H4.06083L11 1.66082ZM22 17.2788C22 17.4777 21.9227 17.6685 21.7852 17.8091C21.6477 17.9498 21.4612 18.0288 21.2667 18.0288H0.733333C0.538841 18.0288 0.352315 17.9498 0.214788 17.8091C0.0772617 17.6685 0 17.4777 0 17.2788C0 17.0799 0.0772617 16.8892 0.214788 16.7485C0.352315 16.6079 0.538841 16.5289 0.733333 16.5289H21.2667C21.4612 16.5289 21.6477 16.6079 21.7852 16.7485C21.9227 16.8892 22 17.0799 22 17.2788Z" fill="#131313"/>
</svg>
